<svg width="541" height="197" viewBox="0 0 541 197" fill="none" xmlns="http://www.w3.org/2000/svg">
<path d="M21 173.5L40.5 147.5H469C480.5 147.5 484.5 142.5 484.5 132.25V117C484.5 106.5 481 98.5 469 98.5H418C403.5 98.5 390 85.5 390 72V46.5C390 34 403 22 414 22H519.5V50.5H424C421.5 50.5 418 51.5 418 55V64.5C418 67.5 421 70 424 70H490.5C509 70 519.5 84.5 519.5 94V147.5C519.5 159.5 509 175 492.5 175C476 175 21 173.5 21 173.5Z" fill="white"/>
<path d="M130.119 22.5L40.75 147.5H77.1964L146.095 50.7738L160.574 96.4087H131.616L116.139 125.179H172.057L177.549 147.5H209.502L167.064 22.5H130.119Z" fill="white"/>
<path d="M216.492 22.5V147.5H245.449V66.1508L285.39 147.5H311.352L351.293 66.1508V147.5H380.75V22.5H344.304L298.371 112.778L252.938 22.5H216.492Z" fill="white"/>
<rect x="37.5" y="142.5" width="359" height="5" fill="black"/>
</svg>
