<?xml version="1.0" encoding="utf-8"?>
<!-- Generator: Adobe Illustrator 28.1.0, SVG Export Plug-In . SVG Version: 6.00 Build 0)  -->
<svg version="1.1" id="Ebene_1" xmlns="http://www.w3.org/2000/svg" xmlns:xlink="http://www.w3.org/1999/xlink" x="0px" y="0px"
	 viewBox="0 0 510.9 450" style="enable-background:new 0 0 510.9 450;" xml:space="preserve">
<style type="text/css">
	.st0{fill:#FFFFFF;}
	.st1{fill-rule:evenodd;clip-rule:evenodd;fill:#FFFFFF;}
	.st2{fill:none;}
</style>
<g>
	<g>
		<g>
			<path class="st0" d="M93.2,368.8h-2.8l0-8.5h-6.5l0,8.5h-2.8v-18.6h2.8v7.7h6.5v-7.7l2.8,0V368.8z"/>
			<path class="st0" d="M96.3,368.8v-2.5H99v-13.7h-2.8v-2.5h8.4v2.5h-2.7v13.7h2.7v2.5H96.3z"/>
			<path class="st0" d="M117.1,368.8l-0.3-0.4c-1.5,0.5-3,0.7-3.8,0.7c-2.9,0-5.7-0.9-5.7-4.3V355c0-3.3,2.7-5.1,5.7-5.1
				c1.6,0,2.9,0.3,4.5,1.1l-1,2.4c-0.9-0.5-2.2-0.9-3.2-0.9c-1.8,0-3.2,0.8-3.2,2.6v9.5c0,1.3,0.9,2.1,3,2.1c0.5,0,1.3-0.1,2.3-0.4
				v-4.8h-2.4v-2.5h5.2v9.9H117.1z"/>
			<path class="st0" d="M133.6,368.8h-2.8l0-8.5h-6.5l0,8.5h-2.8v-18.6h2.8v7.7h6.5v-7.7l2.8,0V368.8z"/>
			<path class="st0" d="M143.2,352.7v16.1h-2.8v-16.1h-4.6v-2.4h12l0,2.4H143.2z"/>
			<path class="st0" d="M160.1,368.8H150v-18.6h10.5l-0.4,2.5H152l0.7,0.6v4.6h6.1v2.4h-6.1v6h7.8L160.1,368.8z"/>
			<path class="st0" d="M168.7,369.1c-2.9,0-5.7-0.9-5.7-4.3V355c0-3.3,2.7-5.1,5.7-5.1c1.6,0,2.9,0.3,4.5,1.1l-1,2.4
				c-0.9-0.5-2.2-0.9-3.2-0.9c-1.8,0-3.2,0.8-3.2,2.6v9.5c0,1.3,0.9,2.1,3,2.1c0.8,0,2.2-0.2,4-1l0.7,2.5
				C171.6,368.9,169.7,369.1,168.7,369.1z"/>
			<path class="st0" d="M188.1,368.8h-2.8l0-8.5h-6.5l0,8.5h-2.8v-18.6h2.8v7.7h6.5v-7.7l2.8,0V368.8z"/>
			<path class="st0" d="M191.4,368.8V366h2.8v2.8H191.4z"/>
			<path class="st0" d="M212.1,368.8l-0.3-0.4c-1.5,0.5-3,0.7-3.8,0.7c-2.9,0-5.7-0.9-5.7-4.3V355c0-3.3,2.7-5.1,5.7-5.1
				c1.6,0,2.9,0.3,4.5,1.1l-1,2.4c-0.9-0.5-2.2-0.9-3.2-0.9c-1.8,0-3.2,0.8-3.2,2.6v9.5c0,1.3,0.9,2.1,3,2.1c0.5,0,1.3-0.1,2.3-0.4
				v-4.8h-2.4v-2.5h5.2v9.9H212.1z"/>
			<path class="st0" d="M225.6,368.8l-4.9-7.6h-1.4v7.6h-2.8l0-18.6h6.2c2.7,0,4.7,1.7,4.7,4.6v1.9c0,2.2-1.3,4-3.6,4.3l4,5.8v2
				H225.6z M224.5,355.3c0-1.9-1.1-2.6-2.3-2.6h-2.9l0,6l2.7,0c1.6,0,2.6-0.6,2.6-2.3V355.3z"/>
			<path class="st0" d="M241.8,364.8c0,2.9-3,4.3-5.7,4.3c-2.8,0-5.7-1.4-5.7-4.3v-14.6h2.8v14.2c0,1.8,2.2,2.2,2.9,2.2
				c0.7,0,3-0.4,3-2.2l0-14.2h2.8L241.8,364.8z M232.6,348.4v-2.5h2.4v2.5H232.6z M237,348.4v-2.5h2.4v2.5H237z"/>
			<path class="st0" d="M258.7,368.8H256l-8.7-14.3l0.5,2.3v12h-2.7l0-18.6h2.4l8.9,14.3l-0.4-2.3v-12h2.8V368.8z"/>
			<path class="st0" d="M267.9,368.8l-5.8,0v-18.6h5.5c3,0,5.6,1.6,5.6,4.9v8.8C273.2,367.3,270.8,368.8,267.9,368.8z M270.3,355.3
				c0-1.2-0.8-2.7-2.8-2.7h-2.7v13.7h2.7c2,0,2.8-1.1,2.8-2.4V355.3z"/>
			<path class="st0" d="M286.2,368.8H276v-18.6h10.5l-0.4,2.5h-8.1l0.7,0.6v4.6h6.1v2.4h-6.1v6h7.8L286.2,368.8z"/>
			<path class="st0" d="M298.6,368.8l-4.9-7.6h-1.4v7.6h-2.8l0-18.6h6.2c2.7,0,4.7,1.7,4.7,4.6v1.9c0,2.2-1.3,4-3.6,4.3l4,5.8v2
				H298.6z M297.6,355.3c0-1.9-1.1-2.6-2.4-2.6h-2.9l0,6l2.7,0c1.6,0,2.6-0.6,2.6-2.3V355.3z"/>
			<path class="st0" d="M303.4,368.8V366h2.8v2.8H303.4z"/>
			<path class="st0" d="M324.4,365.2c0,3-3.3,3.9-5.8,3.9c-1.3,0-3-0.1-4.6-0.8l0.9-2.6c1.3,0.6,2.5,0.8,3.6,0.8c1,0,3.1,0.1,3.1-2
				v-1.5c0-0.8-0.1-1.1-1-1.5l-4.2-2.1c-1.4-0.7-2.2-1.8-2.2-3.4v-2c0-2.9,2.8-4.1,5.6-4.1c1.6,0,3,0.2,4.3,0.6l-0.7,2.6
				c-1.6-0.5-2.5-0.6-3.6-0.6c-1.2,0-2.7,0.5-2.7,1.8v1c0,0.8,0,1.3,0.9,1.7l4.9,2.5c1.3,0.6,1.7,1.8,1.7,3.3L324.4,365.2z"/>
			<path class="st0" d="M332.6,369.1c-2.9,0-5.7-0.9-5.7-4.3V355c0-3.3,2.7-5.1,5.7-5.1c1.6,0,2.9,0.3,4.5,1.1l-1,2.4
				c-0.9-0.5-2.2-0.9-3.2-0.9c-1.8,0-3.2,0.8-3.2,2.6v9.5c0,1.3,0.9,2.1,3,2.1c0.8,0,2.2-0.2,4-1l0.7,2.5
				C335.5,368.9,333.6,369.1,332.6,369.1z"/>
			<path class="st0" d="M352,368.8h-2.8l0-8.5h-6.5l0,8.5h-2.8v-18.6h2.8v7.7h6.5v-7.7l2.8,0V368.8z"/>
			<path class="st0" d="M372.1,368.8h-2.8v-12.3l0.5-1.8l-5.3,8.7h-1.6l-5.5-8.7l0.5,1.9v12.2h-2.6v-18.6h2.5l6.1,9.8l6-9.8l2.2,0
				V368.8z"/>
			<path class="st0" d="M375.2,368.8v-2.5h2.8v-13.7h-2.8v-2.5h8.4v2.5h-2.7v13.7h2.7v2.5H375.2z"/>
			<path class="st0" d="M396.7,368.8h-10.2v-18.6H397l-0.4,2.5h-8.1l0.7,0.6v4.6h6.1v2.4h-6.1v6h7.8L396.7,368.8z"/>
			<path class="st0" d="M405.8,368.8l-5.8,0v-18.6h5.5c3,0,5.6,1.6,5.6,4.9v8.8C411.1,367.3,408.8,368.8,405.8,368.8z M408.3,355.3
				c0-1.2-0.8-2.7-2.8-2.7h-2.7v13.7h2.7c2,0,2.8-1.1,2.8-2.4V355.3z"/>
			<path class="st0" d="M424.2,368.8H414v-18.6h10.5l-0.4,2.5H416l0.7,0.6v4.6h6.1v2.4h-6.1v6h7.8L424.2,368.8z"/>
			<path class="st0" d="M427.4,368.8V366h2.8v2.8H427.4z"/>
		</g>
		<path class="st0" d="M119.6,314.9l-3.1-10.4c-6.3,2.6-10.9,3.8-14.4,3.8c-7,0-9.2-3.4-9.2-6.7v-29.7c0-5,3.9-8.4,9.7-8.4
			c3.1,0,8,1.5,11.7,3.9l4.2-10.4c-6.5-3.5-12.1-4.3-17.7-4.3c-10.7,0-20.1,6.1-20.1,18.1v31.4c0,12.5,10,16.6,20.1,16.6
			C104.3,318.8,112.1,318,119.6,314.9"/>
		<polygon class="st0" points="165.2,271.5 152.6,271.5 143.4,306.3 143.4,296.1 135.5,271.5 121.9,271.5 137.4,317.8 138.9,317.8 
			133.8,334.8 145.2,334.8 		"/>
		<path class="st1" d="M209.8,284.6c0.1-12.6-11-14.3-17-14.3c-1.8,0-5.2,0.4-8.5,1.7v-12.1v-11.1h-12.1v68c8.7,1.8,13.5,2.1,19,2.1
			c10.2,0,18.4-4.1,18.5-15.3L209.8,284.6z M197.5,285.8v17.8c0,4-5.7,6.4-13.2,3.7v-24.1C188.6,280.4,197.5,278.5,197.5,285.8"/>
		<path class="st1" d="M254.4,287.3c0-8.9-3.2-16.9-18-16.9c-10.8,0-17.7,5.7-17.7,16.5v16.6c0,12.1,8.8,15.3,18.9,15.3
			c4.4,0,10.3-1,16.2-3.6l-3-10.3c-4.3,2.3-20.1,7.7-20.1-3.7V298h23.7V287.3z M242.5,285.7v1.8h-11.8l-0.1-2.1
			c-0.2-3.2,2-5.2,6.2-5.2C241.1,280.2,242.5,282.5,242.5,285.7"/>
		<path class="st0" d="M290.2,272.1c-6.9-2.6-12.6-2.2-16.7,2l-2-2.6h-6.7l-0.1,46.3h12.1v-34.1c2-2.2,5.9-2.5,10.8-0.1L290.2,272.1
			z"/>
		<g>
			<path class="st0" d="M335.8,318.6h-33.9v-64.8H314v54.1h23.4L335.8,318.6z"/>
			<path class="st0" d="M371.8,318.6l-2.6-1.7c-3,1.4-7.9,2.7-10.6,2.7c-8.1,0-16-2.5-16-14.1v-3.4c0-9.8,8.8-13.8,16.2-13.9
				l7.5-0.1v-1.4c0-4.1-3.6-5.4-7.1-5.4c-3.1,0-7.5,0.8-10.4,2.1l-2.5-9.2c4.2-2,10.2-3.2,15-3.2c10,0,17.4,4.9,17.4,14.8v33H371.8z
				 M366.4,298h-5.7c-3.9,0-5.6,2.2-5.6,4.9v2.8c0,5.3,7.6,4,11.3,2.1V298z"/>
			<path class="st0" d="M425.9,304.1c-0.1,11.3-8.4,15.4-18.6,15.4c-5.5,0-10.3-0.3-19.1-2.1V249h12.2v11.2v12.3
				c3.3-1.3,6.7-1.7,8.5-1.7c6,0,17.2,1.7,17.1,14.4L425.9,304.1z M400.4,283.7v24.2c7.6,2.8,13.3,0.3,13.3-3.7v-17.9
				C413.7,279,404.7,280.9,400.4,283.7z"/>
		</g>
		<g>
			<path class="st0" d="M195.5,82.7c0,0-7.2,8-13.2,20.3c0,0-7.7,2-14.8,2c-7.1,0-6.3-2.4-5.6-3.1C176.8,87.2,195.5,82.7,195.5,82.7
				"/>
			<path class="st0" d="M182.4,103.1c0,0-1.4,2.4-2.5,5.2c0,0,7.4-1.2,16.8-4c11.6-3.4,32.1-11.6,38.8-22.2c0.1-0.1-2.1-0.7-4.9-1.2
				c-0.1,0-3.6,4.7-14,10.3C209.3,95.2,198.4,99.7,182.4,103.1"/>
			<path class="st0" d="M179.7,108.5c0,0-0.5,1.1-1.3,3.2c-1,2.9-2.7,8-3.9,13.8c0,0-3.1,0.6-8.8,0.6c-8.9,0-11.8-1.4-11.8-1.4
				s0.6-0.4,2.3-1.8c0,0-0.8,0.5-1.5,0.9c-0.6,0.4-1.1,0.8-1.1,0.8s-4.5-1.2-4.5-5.5c0-2,0.3-1.9,0.9-3c0.6-1.1,2.9-4.5,6.9-9.2
				c0,0,0.7,2.5,10.7,2.5C174.3,109.5,179.7,108.5,179.7,108.5"/>
			<path class="st0" d="M174.6,125.8c0,0-0.5,2.4-0.8,4.7c0,0,16.8-1.4,38-8.9c29.8-10.7,45.9-23.8,45.9-30.8c0-0.1-1.5-1-4.1-2.1
				c0,0,0.6,6.5-17.7,17.1C225.4,111.9,202.5,122.3,174.6,125.8"/>
			<path class="st0" d="M173.6,130.7c0,0-1.7,10.1-1.1,19.6c0,0-5.2,0.5-9.4,0.5c-3.4,0-10.7-0.3-15.9-2.5c-0.1,0,0.1,0.1,0,0
				c0,0,2.2-2.4,5-4.7c3.3-2.8,7.2-5.5,7.2-5.5s-3.9,2.5-7.4,5.2c-3,2.3-5.6,4.7-5.6,4.7c-3-1.4-5.2-3.6-5.2-6.8
				c0-5.7,8.3-12.7,8.3-12.7s3.1,2.9,14.7,2.9C169.7,131.2,173.6,130.7,173.6,130.7"/>
			<path class="st0" d="M149.1,128.1c0,0-2.8-1.6-2.8-5.8c0,0-4.2,7.7-6.1,14.9C140.3,137.2,142.3,133.5,149.1,128.1"/>
			<path class="st0" d="M142.5,152c0,0-3.9-2.3-4.5-5.1c0,0-1.2,6.7-1.2,14.9C136.8,161.9,137.5,157.4,142.5,152"/>
			<path class="st0" d="M143.7,152.6c4,1.6,7.4,2.9,19.2,2.9c6.3,0,9.9-0.5,9.9-0.5s0.9,10.4,3.6,18.2c0,0-4,0.3-8.5,0.3
				c-3.4,0-9.7-0.1-15.4-1.5c-0.1,0,2.9-3.1,6.4-6c3.3-2.7,7.3-5.2,7.3-5.2s-4.1,2.1-7.6,4.8c-6.1,4.6-7.3,6-7.3,6
				c-6-1.6-10.7-4.6-10.7-10.6C140.6,156.7,143.6,152.6,143.7,152.6"/>
			<path class="st0" d="M172.7,150.4c0,0,0.1,2.1,0.2,4.5c0,0,9.7-0.7,24.7-4.2c17.1-4,29.1-8.6,43.2-15.3
				c28.6-13.6,35.5-26.7,35.5-29c0-0.2-1.1-1.6-3.6-3.7c-0.1-0.1-1.9,12.8-32.4,28C219.2,141.2,192.7,148.8,172.7,150.4"/>
			<path class="st0" d="M176.6,173.5c0,0,0.8,2.8,1.7,5.1c0,0,12.2-1,29.6-5.3c14.1-3.5,30.1-9,44.2-15.9
				c18.5-9,33.8-20.3,37.8-31.4c0,0-0.9-2-2.7-5.4c0,0-0.6,1.4-1.9,3.8c-1.5,2.8-7.9,16.6-42.7,31.8
				C221.4,165.3,197.5,172,176.6,173.5"/>
			<path class="st0" d="M137.3,168.7c0,0,0.8,11,4.3,19c0,0,0.1-5.1,5.5-11.3C147.2,176.2,139.5,174.3,137.3,168.7"/>
			<path class="st0" d="M186.7,196.3c0,0-5-7.7-8.4-17.6c0,0-7.1,0.4-10.9,0.4c-3.8,0-12.1-0.1-18.5-2.2c0,0-3,3.8-3,7.8
				c0,6.5,6.6,9.9,14.8,11.3c0.1,0,2.2-2.4,4.9-4.7c3.1-2.7,6.3-5,6.3-5s-3.2,2.6-5.8,5.2c-2.3,2.3-4.2,4.7-4.1,4.7
				c3.6,0.5,7.5,0.8,11.3,0.8C181.2,197,186.7,196.4,186.7,196.3"/>
			<path class="st0" d="M190,201.2c0,0-1.4-2-3.2-4.8c0,0,13.1-1.1,28.8-5.4c32.9-9.1,50.8-19.4,62.8-27.6
				c11.1-7.6,17.2-16.7,17.2-18.7c0,0,0.7,1.9,1.6,8c0,0-2.7,5.4-14.8,14.3c-11.7,8.6-34,20.4-64.3,28.7
				C209,198,201.4,199.3,190,201.2"/>
			<path class="st0" d="M203,216.5c0,0-8.2-7.7-13.1-15.1c0,0-9.6,1.2-17.7,1.2c-9.5,0-13.2-1-13.2-1s-0.7,1.7-0.7,3.7
				c0,7,7.3,12.5,27.3,12.5c1.3,0,2.5,0,3.7-0.1c0.1,0,1-0.9,2-1.7c1.2-0.9,2.5-1.8,2.5-1.8s-1.2,1-2.2,2c-0.8,0.7-1.5,1.5-1.5,1.5
				C197.6,217.4,203,216.5,203,216.5"/>
			<path class="st0" d="M156.8,201.1c0,0-7.9-1.4-11.8-5.2c0,0,4.3,8.9,9.5,14.9C154.4,210.9,153.3,206.3,156.8,201.1"/>
			<path class="st0" d="M203.3,216.6c0,0,2.3,2,4.7,4c0,0,9.4-1.4,22.6-5.2c19.3-5.5,48.1-16.9,64.2-33.2c0.1-0.1,2.1-6.6,2.1-10.1
				c0,0-5.4,10.4-25.4,21.6C254.1,203.4,230.7,212.6,203.3,216.6"/>
			<path class="st0" d="M184.2,222.8c-16.5,0-22.2-3.9-22.2-3.9s7.3,7.9,20.3,14.2c0,0-1.2-1.6-1.2-3.5
				C181.2,226,184.2,222.8,184.2,222.8"/>
			<path class="st0" d="M186.7,222.8c3.1,0,12.3-0.2,21.3-2.1c0,0,4.7,4.6,16.6,11c0,0-10.6,2.4-20.7,2.4c-5.4,0-18.2-0.6-18.2-8.1
				C185.7,224.2,186.6,222.8,186.7,222.8"/>
			<path class="st0" d="M217.5,241.1c-12.2,0-19.9-2.4-19.9-2.4s12.6,1.5,33.8-3.9c0,0,7.4,3.1,8.8,3.1
				C240.4,237.9,232.8,241.1,217.5,241.1"/>
			<path class="st0" d="M224.9,231.7c0,0,2.9,1.4,6.6,3c0,0,24.7-5.9,42-16.5c0.3-0.2,9.5-9.9,12.6-15.9c0,0-3.4,5.7-15,12.3
				c-7.1,4-16.1,8.3-24.8,11.4C237.7,229,229.4,230.7,224.9,231.7"/>
		</g>
	</g>
	<rect class="st2" width="510.9" height="450"/>
</g>
</svg>
