<?xml version="1.0" encoding="utf-8"?>
<!-- Generator: Adobe Illustrator 28.1.0, SVG Export Plug-In . SVG Version: 6.00 Build 0)  -->
<svg version="1.1" id="Ebene_1" xmlns="http://www.w3.org/2000/svg" xmlns:xlink="http://www.w3.org/1999/xlink" x="0px" y="0px"
	 viewBox="0 0 621.9 450" style="enable-background:new 0 0 621.9 450;" xml:space="preserve">
<style type="text/css">
	.st0{fill:#FFFFFF;}
	.st1{fill-rule:evenodd;clip-rule:evenodd;fill:#FFFFFF;}
	.st2{fill:none;}
</style>
<g>
	<g>
		<path class="st0" d="M119.7,316.6l-3.1-10.5c-6.4,2.7-11,3.8-14.6,3.8c-7,0-9.2-3.4-9.2-6.8v-30c0-5,3.9-8.5,9.8-8.5
			c3.1,0,8.1,1.5,11.8,3.9l4.3-10.5c-6.6-3.5-12.2-4.4-17.9-4.4c-10.8,0-20.3,6.2-20.3,18.3v31.7c0,12.6,10.1,16.8,20.3,16.8
			C104.3,320.5,112.2,319.7,119.7,316.6L119.7,316.6z"/>
		<polygon class="st0" points="165.6,272.8 153,272.8 143.6,307.9 143.6,297.6 135.7,272.8 122,272.8 137.6,319.5 139.2,319.5 
			134,336.6 145.5,336.6 165.6,272.8 		"/>
		<path class="st1" d="M210.6,286c0.1-12.8-11.1-14.5-17.1-14.5c-1.8,0-5.2,0.4-8.6,1.7V261v-11.2h-12.2v68.6
			c8.8,1.8,13.6,2.1,19.1,2.1c10.3,0,18.6-4.1,18.7-15.4L210.6,286L210.6,286z M198.3,287.1v18c0,4-5.7,6.5-13.3,3.7v-24.3
			C189.3,281.7,198.3,279.8,198.3,287.1L198.3,287.1z"/>
		<path class="st1" d="M255.6,288.7c0-9-3.2-17-18.2-17c-10.9,0-17.8,5.7-17.8,16.7V305c0,12.2,8.9,15.4,19,15.4
			c4.5,0,10.4-1,16.4-3.6l-3-10.4c-4.4,2.3-20.3,7.8-20.3-3.7v-3.2h23.9V288.7L255.6,288.7z M243.7,287v1.8h-11.9l-0.1-2.1
			c-0.2-3.2,2-5.2,6.3-5.2C242.2,281.5,243.7,283.9,243.7,287L243.7,287z"/>
		<path class="st0" d="M291.8,273.3c-7-2.7-12.7-2.2-16.9,2l-2-2.7h-6.8l-0.1,46.8h12.2V285c2-2.2,5.9-2.5,11-0.1L291.8,273.3
			L291.8,273.3z"/>
		<polygon class="st0" points="342.6,254.7 303.4,254.7 303.4,319.4 315.5,319.4 315.5,291 336.7,291 336.7,280.6 315.5,280.6 
			315.5,267.1 313.1,265.2 340.9,265.2 342.6,254.7 		"/>
		<path class="st1" d="M383,304.7v-17.4c0-11.4-9-15.6-19.3-15.6c-10.4,0-19.2,4.3-19.2,15.7v17.3c0,11.4,8.9,15.8,19.2,15.8
			C374.1,320.5,383,316.1,383,304.7L383,304.7z M370.7,304.1c0,3.3-3,5.7-7,5.7c-4,0-7-2.4-7-5.7v-15.7c0-3.3,3-5.8,7-5.8
			c4,0,7,2.5,7,5.8V304.1L370.7,304.1z"/>
		<path class="st0" d="M418.2,273.3c-7-2.7-12.7-2.2-16.9,2l-2-2.7h-6.8l-0.1,46.8h12.2V285c2-2.2,5.9-2.5,11-0.1L418.2,273.3
			L418.2,273.3z"/>
		<path class="st0" d="M462.7,319.5v-46.8h-12.2v35.6c-5.8,2.7-12.6,3.1-12.6-3l0.1-32.8l-12.3,0.1v32.9c0,11.6,7.5,14.9,15.9,14.9
			c2.8,0,7.5-0.6,11.2-2.7l2.9,1.7H462.7L462.7,319.5z"/>
		<path class="st0" d="M534.2,286.8c0-11.9-7.2-15.3-15.6-15.3c-4.9,0-9.9,2.3-12.4,4.6c-2.9-3.3-7.3-4.6-12.2-4.6
			c-2.9,0-7.7,1.2-10.4,3.2l-2.8-2h-8.2v46.8h12.2v-34c1.8-1.6,4.4-3,7.5-3c2.3,0,5,0.8,5,5l-0.1,32h12.2v-34.1
			c1.8-1.6,4.5-2.9,7.6-2.9c2.2,0,4.9,0.8,4.9,5l0.1,32h12.2V286.8L534.2,286.8z"/>
		<path class="st0" d="M196.3,82.3c0,0-7.2,8.1-13.4,20.5c0,0-7.8,2-14.9,2c-7.2,0-6.3-2.4-5.6-3.1
			C177.4,86.8,196.3,82.3,196.3,82.3L196.3,82.3z M183.1,102.8c16.1-3.4,27.1-8,34.6-12c10.5-5.6,14.1-10.4,14.1-10.4
			c2.8,0.5,5,1.2,4.9,1.2c-6.8,10.6-27.4,18.9-39.1,22.4c-9.5,2.8-17,4-17,4C181.7,105.2,183.1,102.8,183.1,102.8L183.1,102.8z
			 M180.3,108.3c0,0-0.5,1.1-1.3,3.3c-1.1,2.9-2.8,8.1-3.9,14c0,0-3.2,0.6-8.9,0.6c-8.9,0-11.9-1.4-11.9-1.4s0.6-0.4,2.3-1.9
			c0,0-0.8,0.5-1.5,1c-0.6,0.4-1.1,0.8-1.1,0.8s-4.6-1.2-4.6-5.6c0-2,0.3-1.9,1-3c0.6-1.1,2.9-4.5,7-9.2c0,0,0.7,2.5,10.8,2.5
			C174.9,109.3,180.3,108.3,180.3,108.3L180.3,108.3z M175.1,125.7c28.2-3.5,51.3-14,61.8-20.1c18.5-10.8,17.8-17.3,17.8-17.3
			c2.7,1.1,4.2,1.9,4.2,2.1c0,7.1-16.2,20.3-46.3,31.1c-21.3,7.6-38.3,9-38.3,9C174.6,128.2,175.1,125.7,175.1,125.7L175.1,125.7z
			 M147.6,148.4c-0.1,0,2.2-2.5,5-4.8c3.3-2.8,7.2-5.6,7.2-5.6s-4,2.6-7.4,5.2c-3,2.3-5.6,4.7-5.7,4.7c-3-1.5-5.2-3.6-5.2-6.9
			c0-5.8,8.3-12.8,8.3-12.8s3.1,2.9,14.8,2.9c5.5,0,9.5-0.5,9.5-0.5s-1.7,10.1-1.1,19.7c0,0-5.2,0.5-9.5,0.5
			C160.1,150.9,152.9,150.6,147.6,148.4L147.6,148.4z M149.5,128.1c-6.8,5.5-8.9,9.2-8.9,9.2c1.9-7.2,6.1-15,6.1-15
			C146.7,126.5,149.5,128.1,149.5,128.1L149.5,128.1z M142.8,152.2c-5.1,5.5-5.7,10-5.7,9.9c0-8.3,1.2-15,1.2-15
			C138.8,149.9,142.8,152.2,142.8,152.2L142.8,152.2z M144,152.8c4.1,1.6,7.5,3,19.4,3c6.3,0,9.9-0.5,9.9-0.5s0.9,10.5,3.7,18.4
			c0,0-4.1,0.3-8.6,0.3c-3.4,0-9.8-0.1-15.6-1.6c-0.1,0,3-3.2,6.5-6.1c3.3-2.7,7.4-5.2,7.4-5.2s-4.1,2.1-7.7,4.9
			c-6.2,4.7-7.3,6-7.4,6c-6-1.6-10.8-4.6-10.8-10.7C140.9,157,143.9,152.8,144,152.8L144,152.8z M173.2,150.5
			c20.2-1.6,47-9.3,68.2-19.9c30.8-15.4,32.6-28.3,32.7-28.2c2.5,2.1,3.6,3.5,3.6,3.7c0,2.3-7,15.5-35.8,29.3
			c-14.3,6.8-26.4,11.4-43.6,15.5c-15.1,3.6-24.9,4.3-24.9,4.3C173.3,152.6,173.2,150.5,173.2,150.5L173.2,150.5z M177.2,173.9
			c21.1-1.5,45.3-8.3,66.5-17.5c35.2-15.4,41.6-29.3,43.1-32.1c1.3-2.4,1.9-3.8,1.9-3.8c1.8,3.4,2.8,5.4,2.8,5.5
			c-4,11.2-19.5,22.5-38.1,31.7c-14.2,7-30.3,12.6-44.6,16.1c-17.6,4.3-29.8,5.3-29.9,5.3C178,176.7,177.2,173.9,177.2,173.9
			L177.2,173.9z M137.6,169c2.2,5.7,10,7.6,9.8,7.7c-5.4,6.3-5.5,11.4-5.5,11.4C138.4,180.2,137.6,169,137.6,169L137.6,169z
			 M187.3,196.9c0,0-5.5,0.7-13.4,0.7c-3.8,0-7.7-0.2-11.4-0.8c-0.1,0,1.8-2.4,4.1-4.7c2.7-2.7,5.9-5.2,5.9-5.2s-3.2,2.2-6.3,5
			c-2.7,2.3-4.8,4.8-4.9,4.8c-8.3-1.5-15-4.8-15-11.4c0-4,3-7.9,3-7.9c6.5,2.1,14.9,2.2,18.7,2.2c3.8,0,10.9-0.5,11-0.4
			C182.3,189.1,187.3,196.9,187.3,196.9L187.3,196.9z M190.7,201.9c0,0-1.4-2-3.2-4.9c0,0,13.2-1.1,29.1-5.5
			c33.2-9.2,51.3-19.6,63.4-27.9c11.2-7.7,17.4-16.8,17.4-18.9c0,0,0.7,1.9,1.6,8c0,0-2.7,5.4-15,14.4
			c-11.8,8.6-34.3,20.6-64.8,28.9C209.9,198.7,202.2,199.9,190.7,201.9L190.7,201.9z M203.9,217.3c0,0-5.5,0.9-13,1.2
			c-0.1,0,0.7-0.7,1.5-1.5c1-1,2.2-2,2.2-2s-1.3,0.8-2.5,1.8c-1.1,0.8-2,1.7-2.1,1.7c-1.2,0-2.4,0.1-3.7,0.1
			c-20.2,0-27.6-5.6-27.6-12.6c0-2.1,0.7-3.7,0.7-3.7s3.8,1,13.4,1c8.1,0,17.8-1.2,17.8-1.2C195.6,209.5,203.9,217.3,203.9,217.3
			L203.9,217.3z M157.2,201.7c-3.5,5.2-2.3,9.8-2.3,9.8c-5.2-6.1-9.6-15.1-9.5-15.1C149.2,200.4,157.2,201.7,157.2,201.7
			L157.2,201.7z M204.1,217.3c27.6-4,51.2-13.3,68.8-23.1c20.2-11.3,25.7-21.8,25.7-21.8c0,3.5-2.1,10.1-2.1,10.2
			c-16.2,16.4-45.3,27.9-64.7,33.5c-13.3,3.8-22.8,5.2-22.8,5.2C206.4,219.3,204.1,217.3,204.1,217.3L204.1,217.3z M184.8,223.6
			c0,0-3,3.3-3,6.9c0,1.9,1.2,3.5,1.2,3.5c-13.2-6.4-20.5-14.4-20.5-14.4S168.2,223.6,184.8,223.6L184.8,223.6z M187.4,223.6
			c3.1,0,12.4-0.2,21.5-2.1c0,0,4.7,4.7,16.8,11.1c0,0-10.7,2.4-20.9,2.4c-5.4,0-18.4-0.6-18.4-8.2
			C186.4,225,187.3,223.6,187.4,223.6L187.4,223.6z M218.4,242.1c-12.4,0-20.1-2.4-20.1-2.4s12.7,1.5,34.1-3.9c0,0,7.5,3.1,8.9,3.1
			C241.5,238.9,233.9,242.1,218.4,242.1L218.4,242.1z M226,232.6c4.5-1,12.8-2.7,21.5-5.8c8.7-3.1,17.9-7.4,25-11.5
			c11.7-6.6,15.1-12.4,15.1-12.4c-3.1,6.1-12.4,15.9-12.7,16c-17.4,10.7-42.3,16.7-42.3,16.6C228.9,234,226,232.6,226,232.6
			L226,232.6z"/>
		<path class="st0" d="M196.3,82.3c0,0-7.2,8.1-13.4,20.5c0,0-7.8,2-14.9,2c-7.2,0-6.3-2.4-5.6-3.1
			C177.4,86.8,196.3,82.3,196.3,82.3L196.3,82.3z"/>
		<path class="st0" d="M183.1,102.8c0,0-1.4,2.4-2.5,5.3c0,0,7.5-1.2,17-4c11.7-3.5,32.4-11.7,39.1-22.4c0.1-0.1-2.1-0.7-4.9-1.2
			c-0.1,0-3.6,4.7-14.1,10.4C210.2,94.9,199.2,99.4,183.1,102.8L183.1,102.8z"/>
		<path class="st0" d="M180.3,108.3c0,0-0.5,1.1-1.3,3.3c-1.1,2.9-2.8,8.1-3.9,14c0,0-3.2,0.6-8.9,0.6c-8.9,0-11.9-1.4-11.9-1.4
			s0.6-0.4,2.3-1.9c0,0-0.8,0.5-1.5,1c-0.6,0.4-1.1,0.8-1.1,0.8s-4.6-1.2-4.6-5.6c0-2,0.3-1.9,1-3c0.6-1.1,2.9-4.5,7-9.2
			c0,0,0.7,2.5,10.8,2.5C174.9,109.3,180.3,108.3,180.3,108.3L180.3,108.3z"/>
		<path class="st0" d="M175.1,125.7c0,0-0.5,2.4-0.8,4.8c0,0,17-1.4,38.3-9c30.1-10.8,46.3-24,46.3-31.1c0-0.1-1.5-1-4.2-2.1
			c0,0,0.7,6.5-17.8,17.3C226.4,111.7,203.3,122.2,175.1,125.7L175.1,125.7z"/>
		<path class="st0" d="M174.1,130.7c0,0-1.7,10.1-1.1,19.7c0,0-5.2,0.5-9.5,0.5c-3.5,0-10.7-0.3-16-2.5c-0.1,0,0.1,0.1,0,0
			c0,0,2.2-2.4,5-4.8c3.3-2.8,7.2-5.6,7.2-5.6s-4,2.6-7.4,5.2c-3,2.3-5.6,4.7-5.7,4.7c-3-1.5-5.2-3.6-5.2-6.9
			c0-5.8,8.3-12.8,8.3-12.8s3.1,2.9,14.8,2.9C170.2,131.2,174.1,130.7,174.1,130.7L174.1,130.7z"/>
		<path class="st0" d="M149.5,128.1c0,0-2.8-1.6-2.8-5.8c0,0-4.2,7.8-6.1,15C140.6,137.3,142.6,133.5,149.5,128.1L149.5,128.1z"/>
		<path class="st0" d="M142.8,152.2c0,0-4-2.3-4.5-5.1c0,0-1.2,6.8-1.2,15C137,162.2,137.7,157.7,142.8,152.2L142.8,152.2z"/>
		<path class="st0" d="M144,152.8c4.1,1.6,7.5,3,19.4,3c6.3,0,9.9-0.5,9.9-0.5s0.9,10.5,3.7,18.4c0,0-4.1,0.3-8.6,0.3
			c-3.4,0-9.8-0.1-15.6-1.6c-0.1,0,3-3.2,6.5-6.1c3.3-2.7,7.4-5.2,7.4-5.2s-4.1,2.1-7.7,4.9c-6.2,4.7-7.3,6-7.4,6
			c-6-1.6-10.8-4.6-10.8-10.7C140.9,157,143.9,152.8,144,152.8L144,152.8z"/>
		<path class="st0" d="M173.2,150.5c0,0,0.1,2.1,0.2,4.6c0,0,9.8-0.7,24.9-4.3c17.2-4.1,29.3-8.7,43.6-15.5
			c28.8-13.7,35.8-27,35.8-29.3c0-0.2-1.1-1.6-3.6-3.7c-0.1-0.1-1.9,12.9-32.7,28.2C220.2,141.3,193.4,149,173.2,150.5L173.2,150.5z
			"/>
		<path class="st0" d="M177.2,173.9c0,0,0.8,2.8,1.7,5.1c0,0,12.3-1,29.9-5.3c14.3-3.5,30.3-9.1,44.6-16.1
			c18.7-9.1,34.1-20.5,38.1-31.7c0,0-1-2-2.8-5.5c0,0-0.6,1.4-1.9,3.8c-1.6,2.8-7.9,16.7-43.1,32.1
			C222.4,165.6,198.3,172.4,177.2,173.9L177.2,173.9z"/>
		<path class="st0" d="M137.6,169c0,0,0.8,11.1,4.3,19.2c0,0,0.1-5.2,5.5-11.4C147.5,176.7,139.7,174.7,137.6,169L137.6,169z"/>
		<path class="st0" d="M187.3,196.9c0,0-5.1-7.8-8.5-17.7c0-0.1-7.2,0.4-11,0.4c-3.8,0-12.2-0.1-18.7-2.2c0,0-3,3.9-3,7.9
			c0,6.6,6.6,9.9,15,11.4c0.1,0,2.3-2.4,4.9-4.8c3.1-2.7,6.3-5,6.3-5s-3.2,2.6-5.9,5.2c-2.3,2.3-4.2,4.7-4.1,4.7
			c3.7,0.6,7.6,0.8,11.4,0.8C181.8,197.6,187.4,197,187.3,196.9L187.3,196.9z"/>
		<path class="st0" d="M190.7,201.9c0,0-1.4-2-3.2-4.9c0,0,13.2-1.1,29.1-5.5c33.2-9.2,51.3-19.6,63.4-27.9
			c11.2-7.7,17.4-16.8,17.4-18.9c0,0,0.7,1.9,1.6,8c0,0-2.7,5.4-15,14.4c-11.8,8.6-34.3,20.6-64.8,28.9
			C209.9,198.7,202.2,199.9,190.7,201.9L190.7,201.9z"/>
		<path class="st0" d="M203.9,217.3c0,0-8.3-7.8-13.2-15.3c0,0-9.7,1.2-17.8,1.2c-9.6,0-13.4-1-13.4-1s-0.7,1.7-0.7,3.7
			c0,7,7.4,12.6,27.6,12.6c1.3,0,2.5,0,3.7-0.1c0.1,0,1-0.9,2.1-1.7c1.2-0.9,2.5-1.8,2.5-1.8s-1.2,1-2.2,2c-0.8,0.8-1.5,1.5-1.5,1.5
			C198.4,218.2,203.9,217.3,203.9,217.3L203.9,217.3z"/>
		<path class="st0" d="M157.2,201.7c0,0-7.9-1.4-11.9-5.2c0,0,4.4,9,9.5,15.1C154.8,211.6,153.7,206.9,157.2,201.7L157.2,201.7z"/>
		<path class="st0" d="M204.1,217.3c0,0,2.3,2,4.8,4c0,0,9.5-1.4,22.8-5.2c19.4-5.6,48.5-17.1,64.7-33.5c0.1-0.1,2.1-6.7,2.1-10.2
			c0,0-5.4,10.5-25.7,21.8C255.3,204,231.7,213.3,204.1,217.3L204.1,217.3z"/>
		<path class="st0" d="M184.8,223.6c-16.6,0-22.4-3.9-22.4-3.9s7.3,7.9,20.5,14.4c0,0-1.2-1.6-1.2-3.5
			C181.8,226.9,184.8,223.6,184.8,223.6L184.8,223.6z"/>
		<path class="st0" d="M187.4,223.6c3.1,0,12.4-0.2,21.5-2.1c0,0,4.7,4.7,16.8,11.1c0,0-10.7,2.4-20.9,2.4c-5.4,0-18.4-0.6-18.4-8.2
			C186.4,225,187.3,223.6,187.4,223.6L187.4,223.6z"/>
		<path class="st0" d="M218.4,242.1c-12.4,0-20.1-2.4-20.1-2.4s12.7,1.5,34.1-3.9c0,0,7.5,3.1,8.9,3.1
			C241.5,238.9,233.9,242.1,218.4,242.1L218.4,242.1z"/>
		<path class="st0" d="M226,232.6c0,0,2.9,1.4,6.6,3c0,0,24.9-6,42.3-16.6c0.3-0.2,9.5-10,12.7-16c0,0-3.4,5.8-15.1,12.4
			c-7.2,4.1-16.3,8.4-25,11.5C238.8,229.9,230.4,231.6,226,232.6L226,232.6z"/>
		<polygon class="st0" points="93,349.6 90.1,349.7 90.1,357.7 83.4,357.7 83.4,349.7 80.5,349.7 80.5,369.2 83.4,369.2 83.4,360.3 
			90.1,360.3 90.2,369.2 93,369.2 93,349.6 		"/>
		<polygon class="st0" points="105.5,369.2 105.5,366.6 102.6,366.6 102.6,352.2 105.5,352.2 105.5,349.6 96.8,349.6 96.8,352.2 
			99.7,352.2 99.7,366.6 96.8,366.6 96.8,369.2 105.5,369.2 		"/>
		<path class="st0" d="M120.6,369.2v-10.5h-5.4v2.7h2.5v5.1c-1,0.3-1.8,0.4-2.3,0.4c-2.2,0-3.1-0.8-3.1-2.2v-10
			c0-1.9,1.4-2.7,3.3-2.7c1,0,2.4,0.5,3.3,1l1-2.6c-1.6-0.8-3-1.1-4.6-1.1c-3.1,0-5.9,1.8-5.9,5.4v10.3c0,3.6,2.9,4.6,5.9,4.6
			c0.8,0,2.4-0.1,3.9-0.7l0.3,0.4H120.6L120.6,369.2z"/>
		<polygon class="st0" points="137.8,349.6 134.9,349.7 134.9,357.7 128.1,357.7 128.1,349.7 125.2,349.7 125.2,369.2 128.1,369.2 
			128.1,360.3 134.9,360.3 134.9,369.2 137.8,369.2 137.8,349.6 		"/>
		<polygon class="st0" points="153.4,352.2 153.4,349.6 141,349.6 141,352.2 145.7,352.2 145.7,369.2 148.6,369.2 148.6,352.2 
			153.4,352.2 		"/>
		<polygon class="st0" points="167.8,366.6 159.8,366.6 159.8,360.3 166,360.3 166,357.7 159.8,357.7 159.8,352.8 159,352.2 
			167.4,352.2 167.7,349.6 156.9,349.6 156.9,369.2 167.4,369.2 167.8,366.6 		"/>
		<path class="st0" d="M182.1,368.5l-0.7-2.6c-1.8,0.9-3.3,1.1-4.1,1.1c-2.2,0-3.1-0.8-3.1-2.2v-10c0-1.9,1.4-2.7,3.3-2.7
			c1,0,2.4,0.5,3.3,1l1-2.6c-1.6-0.8-3-1.1-4.6-1.1c-3.1,0-5.9,1.8-5.9,5.4v10.3c0,3.6,2.9,4.6,5.9,4.6
			C178.2,369.5,180.2,369.3,182.1,368.5L182.1,368.5z"/>
		<polygon class="st0" points="198.5,349.6 195.6,349.7 195.6,357.7 188.9,357.7 188.9,349.7 186,349.7 186,369.2 188.8,369.2 
			188.9,360.3 195.6,360.3 195.7,369.2 198.5,369.2 198.5,349.6 		"/>
		<polygon class="st0" points="205.7,369.2 205.7,366.3 202.8,366.3 202.8,369.2 205.7,369.2 		"/>
		<path class="st0" d="M227.3,349.6h-2.9l0,15c0,1.9-2.3,2.3-3.1,2.3c-0.7,0-3-0.4-3-2.3v-15h-2.9V365c0,3.1,3.1,4.6,5.9,4.6
			s5.9-1.5,5.9-4.6L227.3,349.6L227.3,349.6z"/>
		<polygon class="st0" points="245.4,349.6 242.6,349.6 242.6,362.3 243,364.8 233.8,349.6 231.4,349.6 231.4,369.2 234.2,369.2 
			234.2,356.5 233.6,354.1 242.6,369.2 245.4,369.2 245.4,349.6 		"/>
		<polygon class="st0" points="261,352.2 261,349.6 248.6,349.6 248.6,352.2 253.3,352.2 253.3,369.2 256.3,369.2 256.3,352.2 
			261,352.2 		"/>
		<polygon class="st0" points="275.1,366.6 267.1,366.6 267.1,360.3 273.4,360.3 273.4,357.7 267.1,357.7 267.1,352.8 266.3,352.2 
			274.7,352.2 275.1,349.6 264.2,349.6 264.2,369.2 274.8,369.2 275.1,366.6 		"/>
		<path class="st1" d="M291.3,369.2v-2.2l-4.1-6.1c2.3-0.4,3.7-2.2,3.7-4.6v-2c0-3.1-2.1-4.9-4.9-4.9h-6.4l0,19.7h2.9v-8h1.5l5,8
			H291.3L291.3,369.2z M288,356.1c0,1.8-1,2.5-2.7,2.5l-2.8,0l0-6.4h3c1.3,0,2.4,0.7,2.4,2.8V356.1L288,356.1z"/>
		<polygon class="st0" points="309.5,349.6 306.7,349.6 306.7,362.3 307.1,364.8 298,349.6 295.5,349.6 295.5,369.2 298.3,369.2 
			298.3,356.5 297.8,354.1 306.8,369.2 309.5,369.2 309.5,349.6 		"/>
		<polygon class="st0" points="324.5,366.6 316.5,366.6 316.5,360.3 322.8,360.3 322.8,357.7 316.5,357.7 316.5,352.8 315.7,352.2 
			324.1,352.2 324.4,349.6 313.6,349.6 313.6,369.2 324.1,369.2 324.5,366.6 		"/>
		<polygon class="st0" points="340.1,349.6 337.2,349.7 337.2,357.7 330.5,357.7 330.5,349.7 327.6,349.7 327.6,369.2 330.4,369.2 
			330.5,360.3 337.2,360.3 337.3,369.2 340.1,369.2 340.1,349.6 		"/>
		<polygon class="st1" points="361.3,349.6 359,349.6 352.7,359.9 346.5,349.6 343.9,349.6 343.9,369.2 346.6,369.2 346.6,356.3 
			346.1,354.4 351.8,363.6 353.4,363.6 358.8,354.4 358.3,356.2 358.3,369.2 361.3,369.2 361.3,349.6 		"/>
		<polygon class="st0" points="376.2,366.6 368.2,366.6 368.2,360.3 374.5,360.3 374.5,357.7 368.2,357.7 368.2,352.8 367.4,352.2 
			375.8,352.2 376.2,349.6 365.3,349.6 365.3,369.2 375.9,369.2 376.2,366.6 		"/>
		<path class="st1" d="M391.6,369.2v-2.2l-4.1-6.1c2.3-0.4,3.7-2.2,3.7-4.6v-2c0-3.1-2.1-4.9-4.9-4.9h-6.4l0,19.7h2.9v-8h1.5l5,8
			H391.6L391.6,369.2z M388.2,356.1c0,1.8-1,2.5-2.7,2.5l-2.8,0l0-6.4h3c1.3,0,2.4,0.7,2.4,2.8V356.1L388.2,356.1z"/>
		<polygon class="st0" points="398.1,369.2 398.1,366.3 395.2,366.3 395.2,369.2 398.1,369.2 		"/>
		<polygon class="st0" points="422.4,349.6 419.6,349.6 419.6,362.3 420,364.8 410.9,349.6 408.4,349.6 408.4,369.2 411.2,369.2 
			411.2,356.5 410.7,354.1 419.6,369.2 422.4,369.2 422.4,349.6 		"/>
		<polygon class="st0" points="437.1,366.6 429.1,366.6 429.1,360.3 435.3,360.3 435.3,357.7 429.1,357.7 429.1,352.8 428.3,352.2 
			436.7,352.2 437,349.6 426.2,349.6 426.2,369.2 436.7,369.2 437.1,366.6 		"/>
		<polygon class="st0" points="452.3,352.2 452.3,349.6 439.9,349.6 439.9,352.2 444.6,352.2 444.6,369.2 447.5,369.2 447.5,352.2 
			452.3,352.2 		"/>
		<polygon class="st0" points="466.9,366.6 458.3,366.6 465.7,352.2 465.7,349.6 455.2,349.6 454.8,352.2 462.4,352.2 455.1,367 
			455.1,369.2 466.3,369.2 466.9,366.6 		"/>
		<polygon class="st0" points="489.3,349.7 486.3,349.6 483,364.9 483,361.7 480.1,349.7 477.1,349.7 477.8,352.4 475.1,364.9 
			475.1,361.8 472.3,349.7 469.2,349.7 474,369.2 476.8,369.2 479.1,359.3 479.1,357.1 481.9,369.2 484.7,369.2 489.3,349.7 		"/>
		<polygon class="st0" points="503.3,366.6 495.2,366.6 495.2,360.3 501.5,360.3 501.5,357.7 495.2,357.7 495.2,352.8 494.5,352.2 
			502.9,352.2 503.2,349.6 492.4,349.6 492.4,369.2 502.9,369.2 503.3,366.6 		"/>
		<path class="st1" d="M518.9,369.2v-2.2l-4.1-6.1c2.3-0.4,3.7-2.2,3.7-4.6v-2c0-3.1-2.1-4.9-4.9-4.9h-6.4l0,19.7h2.9v-8h1.5l5,8
			H518.9L518.9,369.2z M515.5,356.1c0,1.8-1,2.5-2.7,2.5l-2.8,0l0-6.4h3c1.3,0,2.4,0.7,2.4,2.8V356.1L515.5,356.1z"/>
		<polygon class="st0" points="535.4,369.2 528.5,359.2 534.4,352.5 534.4,349.6 533,349.6 525.7,358 525.7,349.7 522.8,349.6 
			522.8,369.2 525.7,369.2 525.7,360.3 531.6,369.2 535.4,369.2 		"/>
		<polygon class="st0" points="541.5,369.2 541.5,366.3 538.6,366.3 538.6,369.2 541.5,369.2 		"/>
	</g>
	<rect class="st2" width="621.9" height="450"/>
</g>
</svg>
